<?xml version="1.0" encoding="UTF-8"?>
<svg id="Layer_1" data-name="Layer 1" xmlns="http://www.w3.org/2000/svg" xmlns:xlink="http://www.w3.org/1999/xlink" viewBox="0 0 1800 1100">
  <defs>
    <style>
      .cls-1 {
        fill: url(#linear-gradient-7);
        opacity: .65;
      }

      .cls-1, .cls-2, .cls-3, .cls-4, .cls-5, .cls-6, .cls-7, .cls-8 {
        stroke-width: 0px;
      }

      .cls-2 {
        fill: url(#linear-gradient);
        opacity: .2;
      }

      .cls-3 {
        fill: none;
      }

      .cls-4 {
        fill: url(#linear-gradient-6);
        opacity: .6;
      }

      .cls-5 {
        fill: url(#linear-gradient-2);
        opacity: .3;
      }

      .cls-6 {
        fill: url(#linear-gradient-5);
        opacity: .55;
      }

      .cls-7 {
        fill: url(#linear-gradient-4);
        opacity: .5;
      }

      .cls-8 {
        fill: url(#linear-gradient-3);
        opacity: .4;
      }
    </style>
    <linearGradient id="linear-gradient" x1="-3603.04" y1="4430.48" x2="-2133.36" y2="4430.48" gradientTransform="translate(2084.36 -4398.77) rotate(-23.39)" gradientUnits="userSpaceOnUse">
      <stop offset="0" stop-color="#4591d0"/>
      <stop offset="1" stop-color="#81b9e6"/>
    </linearGradient>
    <linearGradient id="linear-gradient-2" x1="-3495.72" y1="4452.9" x2="-2186.31" y2="4452.9" gradientTransform="translate(2084.36 -4398.77) rotate(-23.39)" gradientUnits="userSpaceOnUse">
      <stop offset="0" stop-color="#2377bb"/>
      <stop offset="1" stop-color="#4195da"/>
    </linearGradient>
    <linearGradient id="linear-gradient-3" x1="-3394.18" y1="4481.96" x2="-2236.06" y2="4481.96" xlink:href="#linear-gradient-2"/>
    <linearGradient id="linear-gradient-4" x1="-3297.05" y1="4520.97" x2="-2279.44" y2="4520.97" gradientTransform="translate(2084.36 -4398.77) rotate(-23.39)" gradientUnits="userSpaceOnUse">
      <stop offset="0" stop-color="#005ca6"/>
      <stop offset="1" stop-color="#0072ce"/>
    </linearGradient>
    <linearGradient id="linear-gradient-5" x1="-3103.64" y1="4517.3" x2="-2310.16" y2="4517.3" gradientTransform="translate(2084.36 -4398.77) rotate(-23.39)" gradientUnits="userSpaceOnUse">
      <stop offset="0" stop-color="#004788"/>
      <stop offset="1" stop-color="#005baf"/>
    </linearGradient>
    <linearGradient id="linear-gradient-6" x1="-2911.93" y1="4514.38" x2="-2340.84" y2="4514.38" gradientTransform="translate(2084.36 -4398.77) rotate(-23.39)" gradientUnits="userSpaceOnUse">
      <stop offset="0" stop-color="#00336b"/>
      <stop offset="1" stop-color="#004491"/>
    </linearGradient>
    <linearGradient id="linear-gradient-7" x1="-2722.71" y1="4494.18" x2="-2371.48" y2="4494.18" gradientTransform="translate(2084.36 -4398.77) rotate(-23.39)" gradientUnits="userSpaceOnUse">
      <stop offset="0" stop-color="#001e4d"/>
      <stop offset="1" stop-color="#002d72"/>
    </linearGradient>
  </defs>
  <rect class="cls-3" y="0" width="1800" height="1100"/>
  <path class="cls-2" d="m1142.18,1629.04c1332.76-115.63,698.99-1306.87,549.27-1456.11-149.72-149.23-327.97,135.33-359.13,179.38-31.17,44.05-137.79,186.26-376.82-68.46-239.03-254.72-601.94-15.15-623.88,178.18-26.32,231.94,113.85,359.09,182.09,537.02,68.24,177.93,161.23,670.52,628.47,629.98ZM465.44,554.73c18.88-166.36,330.8-341.83,556.79-166.14,222.54,173.02,313.97,59.23,341.31,21.71,42.19-57.91,212.96-264.88,334.88-132.25,122.54,133.57,561.02,1050.29-502.15,1240.17-451.05,80.56-480.15-364.97-538.87-518.08-58.72-153.1-214.6-245.83-191.96-445.41Z"/>
  <path class="cls-5" d="m1196.26,1518.21c1063.16-189.88,624.69-1106.6,502.15-1240.17-121.92-132.63-292.69,74.34-334.88,132.25-27.34,37.53-118.76,151.31-341.31-21.71-225.99-175.69-537.91-.22-556.79,166.14-22.65,199.58,133.24,292.3,191.96,445.41,58.72,153.11,87.82,598.64,538.87,518.08Zm-597.01-870.79c15.82-139.38,275.69-250.12,489.69-154.09,205,91.99,282.52,6.12,305.8-25.05,53.46-71.59,216.51-201.15,310.62-85.12,95.37,117.92,340.09,788.16-455.02,1024.23-435.05,129.17-400.07-277.9-449.27-406.18-49.2-128.28-220.79-186.58-201.82-353.79Z"/>
  <path class="cls-8" d="m1250.34,1407.39c795.11-236.07,550.39-906.32,455.02-1024.23-94.11-116.03-257.16,13.53-310.62,85.12-23.28,31.17-100.8,117.04-305.8,25.05-214-96.03-473.87,14.71-489.69,154.09-18.97,167.22,152.62,225.51,201.82,353.79,49.2,128.28,14.22,535.34,449.27,406.18Zm-517.27-667.28c12.75-112.41,219.98-156.2,422.6-142.05,186.89,13.05,251.19-46.9,270.29-71.8,65.15-84.96,220.06-137.42,286.37-37.99,68.19,102.26,129.79,552.93-407.9,808.3-411.95,195.65-319.99-190.82-359.67-294.28-39.68-103.46-226.99-127.32-211.68-262.18Z"/>
  <path class="cls-7" d="m944.75,1002.29c39.68,103.46-52.28,489.92,359.67,294.28,537.69-255.36,476.09-706.04,407.9-808.3-66.3-99.43-221.22-46.97-286.37,37.99-19.09,24.9-83.4,84.85-270.29,71.8-202.61-14.15-409.84,29.64-422.6,142.05-15.3,134.86,172.01,158.72,211.68,262.18Zm-12.54-270.44c5.99-86.23,167.16-113,315.33-109.15,143.01,3.72,193.36-45.57,209.62-70.08,49.15-74.06,177.51-120.48,234.71-34.07,82.94,126.2,43.02,490.3-325.84,651.08-285.9,124.62-203.22-153.29-237.4-242.43-34.19-89.14-203.7-92.33-196.42-195.36Z"/>
  <path class="cls-6" d="m1128.63,927.21c34.19,89.14-48.5,367.05,237.4,242.43,368.86-160.78,408.78-524.88,325.84-651.08-57.2-86.41-185.57-39.99-234.71,34.07-16.26,24.51-66.61,73.79-209.62,70.08-148.17-3.85-309.35,22.92-315.33,109.15-7.28,103.03,162.24,106.21,196.42,195.36Zm210.79-279.86c99.32-6.11,135.73-44.05,148.95-68.36,33.97-62.47,134.96-103.54,183.06-30.14,97.69,150.15-44.47,427.33-243.78,493.86-160.47,53.57-86.44-115.76-115.14-190.59-28.7-74.83-180.41-57.33-181.16-128.53-.78-60.04,114.5-70.48,208.07-76.24Z"/>
  <path class="cls-4" d="m1312.52,852.12c28.7,74.83-45.33,244.15,115.14,190.59,199.31-66.53,341.47-343.71,243.78-493.86-48.1-73.4-149.09-32.33-183.06,30.14-13.22,24.3-49.63,62.25-148.95,68.36-93.57,5.76-208.85,16.2-208.07,76.24.75,71.2,152.47,53.7,181.16,128.53Zm118.79-180.13c55.33-18.48,78.62-42.3,88.28-66.64,19.97-50.34,92.4-86.61,131.41-26.21,112.44,174.09-135.01,354.84-161.72,336.64-37.22-25.36,30.33-78.23,7.13-138.74-23.21-60.51-157.13-22.34-165.9-61.71-7.55-33.86,61.62-30.25,100.81-43.34Z"/>
  <path class="cls-1" d="m1496.4,777.03c23.21,60.51-44.35,113.38-7.13,138.74,26.71,18.2,274.16-162.55,161.72-336.64-39-60.39-111.43-24.13-131.41,26.21-9.66,24.34-32.95,48.16-88.28,66.64-39.19,13.09-108.36,9.48-100.81,43.34,8.78,39.37,142.7,1.2,165.9,61.71Z"/>
</svg>